<?xml version="1.0" standalone="no"?>
<!DOCTYPE svg PUBLIC "-//W3C//DTD SVG 20010904//EN"
 "http://www.w3.org/TR/2001/REC-SVG-20010904/DTD/svg10.dtd">
<svg version="1.0" xmlns="http://www.w3.org/2000/svg"
 width="512.000000pt" height="512.000000pt" viewBox="0 0 512.000000 512.000000"
 preserveAspectRatio="xMidYMid meet">
<metadata>
Created by potrace 1.14, written by Peter Selinger 2001-2017
</metadata>
<g transform="translate(0.000000,512.000000) scale(0.100000,-0.100000)"
fill="#000000" stroke="none">
<path d="M359 4621 c-129 -41 -248 -140 -303 -253 -58 -118 -56 -50 -56 -1808
0 -1758 -2 -1690 56 -1808 36 -74 131 -172 202 -210 123 -66 14 -62 1773 -62
l1598 0 20 26 c26 34 26 54 0 88 l-20 26 -1578 0 c-1737 0 -1642 -3 -1743 62
-60 38 -104 93 -134 166 -23 57 -24 58 -24 515 l0 457 2410 0 2410 0 0 -457
c0 -457 -1 -458 -24 -515 -30 -73 -74 -129 -134 -166 -93 -59 -116 -62 -553
-62 l-398 0 -20 -26 c-12 -15 -21 -34 -21 -44 0 -10 9 -29 21 -44 l20 -26 413
0 c333 0 423 3 469 15 164 43 295 165 351 328 l21 62 3 1642 c3 1793 5 1721
-54 1841 -36 74 -131 172 -202 210 -123 66 -13 62 -1783 62 -1517 0 -1607 -1
-1621 -17 -29 -34 -30 -69 -4 -100 l24 -28 1619 -5 1618 -5 47 -22 c71 -32
141 -103 174 -176 l29 -62 3 -457 3 -458 -2411 0 -2411 0 3 458 3 457 27 57
c35 76 98 142 167 175 l56 28 418 5 419 5 19 24 c25 30 24 62 -2 95 l-20 26
-412 -1 c-366 0 -418 -2 -468 -18z m4611 -2061 l0 -600 -2168 0 c-1193 0
-2277 3 -2410 7 l-242 6 0 588 0 589 163 3 c89 1 1173 4 2410 5 l2247 2 0
-600z"/>
<path d="M1610 2773 c-45 -17 -50 -31 -50 -158 0 -114 1 -123 23 -143 29 -28
67 -28 95 -2 20 19 22 30 22 144 0 105 -3 125 -17 138 -22 19 -53 28 -73 21z"/>
<path d="M3470 2773 c-45 -17 -50 -31 -50 -160 0 -110 2 -125 20 -143 27 -27
71 -26 98 3 20 21 22 34 22 144 0 102 -3 122 -17 135 -22 19 -53 28 -73 21z"/>
<path d="M2261 2574 c-12 -15 -21 -33 -21 -41 0 -46 76 -118 165 -156 137 -59
314 -29 422 71 52 47 63 84 36 120 -31 42 -74 41 -124 -2 -63 -54 -105 -70
-179 -70 -73 0 -116 16 -178 70 -50 43 -92 45 -121 8z"/>
</g>
</svg>
